<svg id="Layer_1" data-name="Layer 1" xmlns="http://www.w3.org/2000/svg" viewBox="0 0 990 134.74"><defs><style>.cls-1{fill:#005908;}.cls-2{fill:#015909;}.cls-3{fill:#015a09;}.cls-4{fill:#025a0a;}.cls-5{fill:#035b0b;}.cls-6{fill:#075e0f;}.cls-7{fill:#27712c;}.cls-8{fill:#edf5f0;}.cls-9{fill:#528d57;}.cls-10{fill:#377d3d;}.cls-11{fill:#176820;}.cls-12{fill:#cee1d3;}.cls-13{fill:#57915c;}.cls-14{fill:#3e8245;}.cls-15{fill:#bcd5c0;}.cls-16{fill:#fefffe;}.cls-17{fill:#196a22;}.cls-18{fill:#eef4ee;}.cls-19{fill:#d9ece3;}.cls-20{fill:#9cbc9b;}.cls-21{fill:#43884e;}.cls-22{fill:#fff;}.cls-23{fill:#fdfefd;}.cls-24{fill:#1b6d25;}.cls-25{fill:#337837;}.cls-26{fill:#1a6c24;}.cls-27{fill:#216d26;}</style></defs><path class="cls-1" d="M105.58,453.46c-1.81,4.9-4.85,9.05-8,13.13a19.72,19.72,0,0,1-11.09,7c-.2,0-.53.38-.5.45a3.12,3.12,0,0,0,.67,1.09,2.93,2.93,0,0,0,1.21.66,9.8,9.8,0,0,0,6.83-.66,34.59,34.59,0,0,0,6.89-4.84,25.08,25.08,0,0,1,9.18-5,2.62,2.62,0,0,1,3.1,2.06c.06.7.14,1.4.13,2.1q-.07,31.67-.16,63.33c0,10.09,0,20.18,0,30.26,0,1.16-.09,2.32-.2,3.48,0,.13-.37.27-.59.33s-.5.07-.61,0c-1-1-1.93-2-2.78-3.11a163.14,163.14,0,0,0-19.51-21.19c-3.16-2.87-6.5-5.4-10.81-6.28a6.82,6.82,0,0,1-1.27-.56,1.47,1.47,0,0,1-.84-1.67c.4-.85.84-1.68,1.19-2.54,1.86-4.56,3.72-9.11,5.5-13.69a24.16,24.16,0,0,0,.8-3.41,8,8,0,0,0,.34-2.4l.23-.53s-.6.16-.6.18a4.25,4.25,0,0,1-1.78,1l-15.51,19c-.74.9-1.4,1.87-2.15,2.77-3.29,4-7.56,5.25-12.54,4.52-1.85-.27-3.68-.63-5.52-1a18.23,18.23,0,0,0-11.6,1.51c-3.39,1.68-7.15,2.06-10.8,2.76a7.46,7.46,0,0,1-2.78-.14,2.43,2.43,0,0,1-2.14-2.37c1.36-2.31,3.68-2.9,6.06-3.38,2.79-.44,4.43-2.8,6.74-4.06,8.49-3.19,13.23-14,10.71-25.37a70.23,70.23,0,0,1-.62-26.4A30.81,30.81,0,0,1,55,459.84c1.67-1.27,3.31-2.59,4.89-4s4.15-3,3-5.7c-1-2.27-3.58-1.67-5.63-1.81-2.79-.19-5.55.84-8.36.21L48,448c0-.44-.1-1,.14-1.29,4.09-4.37,9.1-5.27,14.68-3.68a24.85,24.85,0,0,1,7.31,4c3.44,2.39,6.86,4.81,10.3,7.2a1.8,1.8,0,0,0,2.43-.45c.91-1.35,1.76-2.75,2.7-4.07a5.11,5.11,0,0,1,2.69-2.12c1.19-.59,1.87.07,2.44,1,.75,2.78-1.63,4.61-2.25,7.45,5.07-3.8,9.86-7.64,16.52-6.08C106.16,450.93,106.73,452,105.58,453.46Z" transform="translate(-5 -432.63)"/><path class="cls-1" d="M832,522.63q0,18.64,0,37.28c0,1.64-.06,3.28-.11,4.92a2,2,0,0,1-1.39,1.36q-7.38.06-14.75.08a2.67,2.67,0,0,1-2.31-1.34c-1.3-1.95-2.62-3.88-3.92-5.84L780,514.55c-.77-1.17-1.48-2.4-2.34-3.5-.64-.83-.89-2.41-2.44-1.89-1.21.4-.61,1.61-.65,2.44-.1,1.87,0,3.75,0,5.63q0,20.38,0,40.79c0,2.11,0,4.22-.07,6.33a1.84,1.84,0,0,1-1.62,1.89c-4.68,0-9.37,0-14.05,0a2.14,2.14,0,0,1-1.51-1.24c-.06-.93-.14-1.87-.14-2.8q0-39.75,0-79.48a13.75,13.75,0,0,1,.22-2.8,1.54,1.54,0,0,1,.94-1,7.28,7.28,0,0,1,2.09-.19c3.52,0,7,.09,10.55,0a5.91,5.91,0,0,1,5.76,3c10.37,15.89,20.87,31.7,31.34,47.54,1.29,2,2.56,3.93,3.92,5.83a4.68,4.68,0,0,0,1.56,1.2c.29.17.89-.93.9-1.71,0-1.88,0-3.75,0-5.63q0-21.1,0-42.2c0-2.11.11-4.21.16-6.32,0-.45.87-1.54,1.24-1.53,4.92,0,9.83,0,14.75.12.43,0,1.14.9,1.2,1.44.18,1.86.17,3.74.17,5.62Q832,504.35,832,522.63Z" transform="translate(-5 -432.63)"/><path class="cls-1" d="M898.58,531.05c-4.21,0-8.43,0-12.65,0-1.07,0-2-.7-2-1.51,0-3.51,0-7,.08-10.52,0-.34.55-.84.94-1a7.18,7.18,0,0,1,2.08-.22h40.77c.47,0,.94,0,1.41.06.71,0,1.92,1.11,1.92,1.76,0,4.21.19,8.44,0,12.64a20.7,20.7,0,0,1-1.37,6.14q-8.53,22.89-32.48,27.94A44.91,44.91,0,0,1,868.47,563c-13.44-6.29-21.38-17-24.14-31.61a46.6,46.6,0,0,1,1.85-24.93c5.46-15.05,16.27-24.2,31.88-27.73a47.52,47.52,0,0,1,27,1.72c11.14,4,19.23,11.38,23.26,22.77a1.39,1.39,0,0,1-1.11,2c-.7,0-1.4.09-2.1.09q-6,0-12,0c-4,0-3.86.11-6.41-3.17-4.16-5.33-9.79-7.83-16.46-8.06a30.63,30.63,0,0,0-10.43,1c-8.5,2.68-13.89,8.48-16.6,16.77a33.35,33.35,0,0,0,0,21.44c3.36,9.94,10.22,16,20.78,17.57a34.23,34.23,0,0,0,9.8,0c8.06-1.11,13.83-5.36,17.49-12.55a13.89,13.89,0,0,0,1.93-5.93,1.34,1.34,0,0,0-.66-1,12.93,12.93,0,0,0-2.78-.29c-3.75,0-7.5,0-11.25,0Z" transform="translate(-5 -432.63)"/><path d="M329.47,522.52q0-18.63,0-37.24a40.15,40.15,0,0,1,.18-4.91c.07-.51.77-1.12,1.31-1.36a5.49,5.49,0,0,1,2.08-.2l28.81,0a48.59,48.59,0,0,1,17.2,3c15.11,5.65,24,16.51,26.62,32.47a50.16,50.16,0,0,1-1.4,22.91c-3.32,11.2-10.4,19.23-20.81,24.31a44.61,44.61,0,0,1-18.24,4.65c-4.91.15-9.84.13-14.75.14-5.86,0-11.71,0-17.57,0-3.12,0-3.42-.35-3.43-3.76,0-6.33,0-12.65,0-19Z" transform="translate(-5 -432.63)"/><path class="cls-2" d="M580,522.09q0-19,0-38c0-1.17.06-2.34.11-3.51a1.94,1.94,0,0,1,1.88-1.68c1.64-.05,3.28-.09,4.92-.1,9.51,0,9.89,0,10.22.92,1.12,3.18.47,6.48.53,9.73.1,6.8,0,13.6,0,20.4a14.25,14.25,0,0,0,.32,3.46c.15.55.85,1,1.41,1.37a2.79,2.79,0,0,0,1.37.16q15.48,0,31,0a5.84,5.84,0,0,0,2-.37,1.49,1.49,0,0,0,.89-.93,32.4,32.4,0,0,0,.32-4.18q0-12.66,0-25.33c0-.94,0-1.87.05-2.81,0-1.42.79-2.28,2-2.32,1.64-.06,3.28-.08,4.92-.09,9.6,0,9.91,0,10.24.9,1.13,3.17.52,6.47.53,9.71q.09,35.18,0,70.36c0,1.64,0,3.28-.15,4.91a1.48,1.48,0,0,1-1.32,1.41c-2.81.13-5.61.27-8.42.25-8.88-.05-7.89,1-7.92-7.8,0-8.45,0-16.89,0-25.33a13.71,13.71,0,0,0-.23-2.79c-.08-.37-.61-.67-1-.93a1.29,1.29,0,0,0-.69-.1q-16.53,0-33.07,0a2,2,0,0,0-2.26,2c0,.7-.07,1.4-.07,2.11q0,6.68,0,13.36,0,7.74,0,15.48c0,.71-.05,1.41-.09,2.11a2.21,2.21,0,0,1-1.84,1.8q-7,0-14-.06a1.89,1.89,0,0,1-1.64-1.89c0-3.28-.06-6.57-.07-9.85Q580,538.27,580,522.09Z" transform="translate(-5 -432.63)"/><path class="cls-1" d="M704.68,478.75c13.11.31,9.62-2.27,14,9.76,8.95,24.41,17.58,48.93,26.34,73.4.32.88.62,1.77.91,2.66.17.53-.46,1.56-1,1.57-5.15.05-10.3.1-15.45.11a2.12,2.12,0,0,1-2-1.65q-1.89-5.29-3.79-10.58a23.64,23.64,0,0,0-1-2.63,2.47,2.47,0,0,0-2.11-1.6c-.93,0-1.87-.09-2.81-.09H692.51c-5.74,0-4.83,0-6.78,5.08-1.17,3.06-2.12,6.21-3.19,9.31a3.83,3.83,0,0,1-.61,1.25,2,2,0,0,1-1.13.76,99.6,99.6,0,0,1-16.11,0c-.57-.05-.81-.44-.68-1a20.63,20.63,0,0,1,.62-2.72q14.37-40,28.77-80c.23-.66.5-1.31.74-2a2.17,2.17,0,0,1,2.1-1.51c1.17-.07,2.35-.09,3.52-.1C701.4,478.74,703,478.75,704.68,478.75Z" transform="translate(-5 -432.63)"/><path class="cls-1" d="M555.6,506c-2.58,0-5.16,0-7.74,0a2.92,2.92,0,0,1-2.34-1.33c-.83-1.13-1.56-2.35-2.47-3.42a20.69,20.69,0,0,0-11.9-7,27.14,27.14,0,0,0-15.23.92c-9.22,3.37-14.22,10.33-16.19,19.68a36.86,36.86,0,0,0,0,15.37c1.93,9,6.65,15.94,15.51,19.44a26.64,26.64,0,0,0,18.6.43,19.68,19.68,0,0,0,9.17-6.28,25.88,25.88,0,0,0,2-2.86,4.3,4.3,0,0,1,4.17-2c3.52.06,7,.05,10.56,0,7.07-.08,7.15.23,4.09,6.27-5.41,10.69-14.21,17.3-25.61,20.41a47.67,47.67,0,0,1-27.73-.65,42.28,42.28,0,0,1-29.33-36.83c-.46-6.6-.44-13.15,1.59-19.51,5.24-16.37,16.25-26.41,33.12-30A46.28,46.28,0,0,1,540.19,480c12.09,3.92,20.6,11.75,25.38,23.57a1.65,1.65,0,0,1-1.52,2.39c-.7,0-1.41.06-2.11.06H555.6Z" transform="translate(-5 -432.63)"/><path class="cls-1" d="M508.35,457.84c-.11.29-.15.63-.3.69-.38.16-.92.38-1.21.22-1.84-1-3.63-2.13-5.45-3.21a1.76,1.76,0,0,0-2.37.68q-1.75,2.64-3.46,5.3-31.43,49.17-62.84,98.34c-1,1.58-2.06,3.14-3,4.74a3.2,3.2,0,0,1-2.84,1.71c-1.4,0-2.81.05-4.21.05-4.46,0-8.92,0-13.37,0-1.85,0-2.26-.94-1.16-2.67q13-20.45,26.09-40.89,23.08-36.15,46.18-72.28,1.32-2.07,2.59-4.18a2,2,0,0,0-.47-2.5c-2-1.29-3.94-2.54-5.88-3.85a3.39,3.39,0,0,1-.85-1.05c-.07-.12,0-.49.08-.52a27.42,27.42,0,0,1,3.32-1.09c5.49-1.21,11-2.36,16.48-3.55,1.6-.34,3.19-.73,4.8-1.08a1.93,1.93,0,0,1,2.11,1.38c.21.67.43,1.34.6,2q2.49,9.87,5,19.75A14.84,14.84,0,0,1,508.35,457.84Z" transform="translate(-5 -432.63)"/><path d="M195.84,522.07q0-19.34,0-38.67a22.33,22.33,0,0,1,.25-3.47,1.57,1.57,0,0,1,1-.92,7.27,7.27,0,0,1,2.08-.25h45a3.48,3.48,0,0,1,1.38.17c.39.18,1,.6,1,.92q.09,6,0,11.92a1.38,1.38,0,0,1-.89,1,12,12,0,0,1-2.75.27c-8,0-15.94,0-23.91,0-1.17,0-2.34,0-3.51.08a2,2,0,0,0-1.66,1.9c0,.24-.07.47-.07.7q0,8.08,0,16.17a13.31,13.31,0,0,0,.13,1.39,2,2,0,0,0,1.9,1.7c5.86,0,11.72,0,17.58.08,2.57,0,5.15,0,7.73.07a2.18,2.18,0,0,1,2.06,2.35c0,.24,0,.47,0,.71-.25,12.52,2.15,10.69-10.61,10.83-5.62.07-11.24,0-16.87.09a1.79,1.79,0,0,0-1.88,1.63q0,9.82,0,19.67a1.86,1.86,0,0,0,1.88,1.63l21.79.07c2.34,0,4.69,0,7,0a2.07,2.07,0,0,1,2.17,2.16c0,.93.06,1.87,0,2.81-.25,10.9,1.89,9.14-9.15,9.23-12.18.09-24.37,0-36.55,0-1.17,0-2.34-.11-3.51-.15-.46,0-1.52-.87-1.53-1.25-.05-1.4-.11-2.8-.11-4.21Q195.84,541.4,195.84,522.07Z" transform="translate(-5 -432.63)"/><path class="cls-1" d="M944.33,522.43q0-19,0-38a26.63,26.63,0,0,1,.21-4.2,2.33,2.33,0,0,1,1.33-1.34,5.49,5.49,0,0,1,2.08-.17h43.6a5.22,5.22,0,0,1,2.07.23c.55.24,1.3.88,1.31,1.36.1,3.74.09,7.49,0,11.23a1.48,1.48,0,0,1-1.45,1.26c-1.4.09-2.8.16-4.21.17-7.5,0-15,0-22.5,0a15.53,15.53,0,0,0-3.48.27,2.09,2.09,0,0,0-1.31,1.36,24.49,24.49,0,0,0-.23,4.2c0,4.22,0,8.44,0,12.65,0,3,.6,3.52,3.84,3.54,6.1,0,12.19,0,18.28,0,1.88,0,3.75.06,5.62.12a1.84,1.84,0,0,1,1.67,1.84c0,3.28.05,6.56,0,9.84a2.17,2.17,0,0,1-2.31,2.1c-6.56,0-13.12,0-19.69.08-1.87,0-3.73.09-5.6.17a2,2,0,0,0-1.77,1.86q0,9.5,0,19a2,2,0,0,0,1.68,1.88c1.64.08,3.27.16,4.91.16,7.5,0,15,0,22.5,0a11.82,11.82,0,0,1,2.79.23A1.54,1.54,0,0,1,995,553.8c0,3.75,0,7.49,0,11.23a1.45,1.45,0,0,1-.88,1,6.22,6.22,0,0,1-2.07.3H947a3.55,3.55,0,0,1-1.39-.17c-.4-.17-1-.54-1-.89a32.35,32.35,0,0,1-.26-4.18Q944.31,541.77,944.33,522.43Z" transform="translate(-5 -432.63)"/><path d="M262.77,522.35q0-19,0-38c0-1.4.1-2.8.16-4.2a2.09,2.09,0,0,1,1.39-1.35c.71,0,1.41-.08,2.11-.08h42.89a26,26,0,0,1,2.79.19,1.5,1.5,0,0,1,1.39,1.33c.11,3.5.11,7,.1,10.53a2.06,2.06,0,0,1-2.21,2.15q-9.84.06-19.68.05c-10.56,0-10.65,0-10.94.9-1,3.42-.29,7-.49,10.42-.06.93,0,1.87,0,2.81.08,8.68-1,7.87,7.88,7.9l19.68.09a1.86,1.86,0,0,1,1.89,1.64,5.36,5.36,0,0,1,0,.7c-.29,13.68,2.54,11.31-11.21,11.53-5.39.09-10.77,0-16.16.09a2.09,2.09,0,0,0-2.08,2.28q0,9.15,0,18.28c0,1.66.84,2.41,2.69,2.41,8.43,0,16.87,0,25.31,0,1.17,0,2.33.07,3.5.13a1.93,1.93,0,0,1,1.75,1.81c0,3.51,0,7,0,10.54a1,1,0,0,1-.19.63,2.62,2.62,0,0,1-1,.87,7.18,7.18,0,0,1-2.07.27q-22.5,0-45,0a3.4,3.4,0,0,1-1.36-.18c-.39-.18-.92-.57-1-.92a36.86,36.86,0,0,1-.21-4.21Q262.76,541.67,262.77,522.35Z" transform="translate(-5 -432.63)"/><path d="M129.44,522.44q0-18.65,0-37.29a38.25,38.25,0,0,1,.2-4.91A2.14,2.14,0,0,1,131,479a10.83,10.83,0,0,1,2.8-.16h45.73a12.06,12.06,0,0,1,2.75.29,1.38,1.38,0,0,1,.89.93q.07,6,0,11.92c0,.31-.62.82-1,.87a27.17,27.17,0,0,1-3.5.18c-8.91,0-17.82,0-26.73,0a34.06,34.06,0,0,0-3.5.21c-.8.08-1.06.79-1.35,1.41a1.59,1.59,0,0,0-.11.69c0,5.86,0,11.72,0,17.58,0,1.74.82,2.51,2.62,2.53,3.51,0,7,0,10.55,0l12.66.06a2.06,2.06,0,0,1,2.08,2.25c0,3.28,0,6.56-.09,9.84a1.85,1.85,0,0,1-1.76,1.78c-1.41,0-2.81.07-4.22.07-5.86,0-11.73,0-17.59,0-.93,0-1.86.11-2.79.2a1.55,1.55,0,0,0-1.33,1.41,32.79,32.79,0,0,0-.18,4.21c0,8.21,0,16.42,0,24.62,0,1.64-.07,3.28-.11,4.92,0,.48-.87,1.43-1.32,1.43-4.92,0-9.84,0-14.76-.11a1.48,1.48,0,0,1-1.19-1.5c0-1.87-.08-3.75-.08-5.62Q129.44,540.72,129.44,522.44Z" transform="translate(-5 -432.63)"/><path class="cls-3" d="M437.45,501.89a11,11,0,0,1-.6,1.25q-4.52,7.1-9.06,14.16a1.41,1.41,0,0,1-2.29-.23c-.27-.38-.51-.78-.76-1.17q-10.77-16.81-21.5-33.64a10.56,10.56,0,0,1-.94-2.52.78.78,0,0,1,.25-.63,1.09,1.09,0,0,1,.66-.18l18.21-.09a3.2,3.2,0,0,1,2.87,1.63q6.4,10,12.77,20.1A5.34,5.34,0,0,1,437.45,501.89Z" transform="translate(-5 -432.63)"/><path class="cls-4" d="M447.55,551.35c3.34-5.2,6.62-10.31,9.91-15.41a1.3,1.3,0,0,1,2.27.08c1,1.54,2.09,3.09,3.1,4.66q7.51,11.85,15,23.7a1.18,1.18,0,0,1-1,1.91c-.23,0-.46.05-.69.05l-16.85,0a3.7,3.7,0,0,1-3.51-1.81C453.12,560.18,450.15,556,447.55,551.35Z" transform="translate(-5 -432.63)"/><path class="cls-5" d="M18.19,481.78a29.12,29.12,0,0,1-12-10.45c-2.1-3.08-1.47-5.68,1.72-7.69a16.12,16.12,0,0,1,3.76-1.82c6-1.82,12-2.17,17.66,1a3,3,0,0,0,3.8-.36c1.08-.88,2.26-1.65,3.39-2.47a2.88,2.88,0,0,1,.87,2c-4.46,6.13-6.83,12.86-6.23,20.56a5.45,5.45,0,0,1-2.34,4.8,2.61,2.61,0,0,1-2,.25c-1.4-3-1.29-6.42-2.66-9.4-4.42-3.74-3.39.46-3.77,2.59C19.92,481.81,19.33,482.45,18.19,481.78Z" transform="translate(-5 -432.63)"/><path class="cls-6" d="M32.41,533.7a41.88,41.88,0,0,1-3.31,3.35,7.9,7.9,0,0,1-2.48.86c-4.58-1.16-9.37.16-13.94-1.13a7.1,7.1,0,0,1-4.14-6.53,64.31,64.31,0,0,0-1-6.74,6.73,6.73,0,0,1,1.05-5.21c1.6-.6,3.33-.86,4.79-1.85,4.27-1.71,8.62-2.57,13-.47,2.65,1.29,4.94,3.35,3.87,6.63s-3.81,1.54-6,1.15a4,4,0,0,0-2.42.17C24,528.78,28.05,531.38,32.41,533.7Z" transform="translate(-5 -432.63)"/><path class="cls-7" d="M90.2,449.43l-2-1.86a5.65,5.65,0,0,1,4.08-2.31,37.76,37.76,0,0,1,13-.19,3.29,3.29,0,0,1,2.57,3.54c-.41,1.78-.7,3.64-2.32,4.85-.19-1.1-.36-2.23-1.5-2.83-1.92-2.29-4.31-.9-6.52-.83C95.09,449.89,92.55,451.43,90.2,449.43Z" transform="translate(-5 -432.63)"/><path class="cls-8" d="M19.77,480.23c-.67-.93-1.38-1.84-2-2.82a1.93,1.93,0,0,1,1-2.32,6.33,6.33,0,0,1,6.5,1,9.92,9.92,0,0,1,0,8.37l-1.6-.17C23.1,482.27,20.42,482.22,19.77,480.23Z" transform="translate(-5 -432.63)"/><path class="cls-9" d="M25.28,484.49c1.09-2.79.51-5.58,0-8.37A3.18,3.18,0,0,1,27,478.91c.11,2.75.17,5.5.25,8.25a8.29,8.29,0,0,1,1.89,3.45c0,2.84-.37,5.48-3.08,7.14a3.06,3.06,0,0,1-2.06-.24,1,1,0,0,1,.15-1.72l-.05.08c.7-.84.53-2,1.11-2.9A13.66,13.66,0,0,0,25.28,484.49Z" transform="translate(-5 -432.63)"/><path class="cls-10" d="M36.6,461.87c0-.61,0-1.22-.05-1.84,2.91-3.49,5.81-7,8.75-10.46.22-.25.81-.18,1.23-.25l.66.8C46.54,456.4,43,460.38,36.6,461.87Z" transform="translate(-5 -432.63)"/><path class="cls-11" d="M12.71,518.45a1.69,1.69,0,0,1-2.27.75c-.62-.25-1.21-.59-1.81-.9A3.81,3.81,0,0,1,8.9,517a22.28,22.28,0,0,1,6.84-7.16.86.86,0,0,1,1.46,0C17.75,513.82,12.9,514.91,12.71,518.45Z" transform="translate(-5 -432.63)"/><path class="cls-12" d="M12.68,536.78c4-.12,7.92-.25,11.88-.34a1.91,1.91,0,0,1,2.06,1.47l-3.69.91c-1,.25-2.05.48-3.08.72a2.63,2.63,0,0,0-2.15-1.43,23.45,23.45,0,0,1-3.37-.24C13.73,537.74,13.23,537.16,12.68,536.78Z" transform="translate(-5 -432.63)"/><path class="cls-13" d="M16.91,508.4l1.32-2.33c.55-1,1.08-2,1.63-2.94a1.26,1.26,0,0,1,1.53-.51,2.9,2.9,0,0,1,1.66,2.05c-.52,2.53-1.61,4.62-4.23,5.54A2.86,2.86,0,0,1,16.91,508.4Z" transform="translate(-5 -432.63)"/><path class="cls-14" d="M19.77,480.23c1.75.94,3.87,1.51,3.91,4.09l-3.29-1a3.27,3.27,0,0,1-2.2-1.5Z" transform="translate(-5 -432.63)"/><path class="cls-15" d="M82.89,512.49l1.54-2.78c1.32-.28,2,.16,1.7,1.59-.3,1.08-.35,2.28-1.43,3C84.09,513.69,83.49,513.09,82.89,512.49Z" transform="translate(-5 -432.63)"/><path class="cls-16" d="M25.16,493c.17,1.17.06,2.24-1.11,2.9A2.92,2.92,0,0,1,25.16,493Z" transform="translate(-5 -432.63)"/><path class="cls-17" d="M16.91,508.4l1.34,1.17-.82.48-1.69-.17Z" transform="translate(-5 -432.63)"/><path class="cls-16" d="M24.1,495.79l.12,1.41a1.55,1.55,0,0,1-.79,1.57l-.94-.24A2.79,2.79,0,0,1,24.1,495.79Z" transform="translate(-5 -432.63)"/><path class="cls-16" d="M21,501.28a3.25,3.25,0,0,1,1.47-2.75l.22.15a2.17,2.17,0,0,1,.45,1.75,2.34,2.34,0,0,1-1.29,1.26Z" transform="translate(-5 -432.63)"/><path class="cls-16" d="M21.1,502.73l-1.24.4c.38-.62.77-1.23,1.16-1.85l.17.13.42.69Z" transform="translate(-5 -432.63)"/><path class="cls-1" d="M46.53,449.32c0-.95.29-1.62,1.44-1.35l-.14-.15c.4,1.36,0,1.86-1.42,1.39Z" transform="translate(-5 -432.63)"/><path class="cls-16" d="M46.41,449.21c1.12.2,1.41-.46,1.42-1.39,1.14-.2,2.3-.34,3.41-.63a27.32,27.32,0,0,1,11.12-.87,4.57,4.57,0,0,1,3.17,6.52,12.71,12.71,0,0,1-2.63,3.21c-1.77,1.54-3.71,2.85-5.56,4.29-1.29,1-2.54,2.07-3.82,3.1A24.3,24.3,0,0,0,45.3,477c-1.8,7.34-2,14.84-1.68,22.34a17.67,17.67,0,0,0,1.15,4.73,21,21,0,0,1,.57,11.74c-1.1,4.78-2.48,9.51-2.72,14.46,0,.68-1.15,1.62-2,1.75-1.39.23-2.79.37-4.16.65s-2.71.68-4.06,1c-1.39,0-2.78,0-4.17-.05-2,0-2.68-.61-3.41-2.79a2.69,2.69,0,0,1-.16-.68,2.73,2.73,0,0,0-2.55-2.78,12.75,12.75,0,0,1-3.34-.93,3.44,3.44,0,0,1-1.27-1.56c-.32-.61.33-1.8,1.09-2.35a5.57,5.57,0,0,1,6.53-.45c.79.47,1.47,1.12,2.23,1.65s1.59.59,1.76,0a3.62,3.62,0,0,0,.25-2,7.81,7.81,0,0,0-8.61-5.55,21.24,21.24,0,0,0-8,2.16c-1.47-1.11-1.65-1.67-.79-2.51,1.12-1.11,2.31-2.16,3.4-3.31.76-.8,1.41-1.72,2.11-2.58a.63.63,0,0,0,.82-.48,10.32,10.32,0,0,0,4.11-5.47,1.37,1.37,0,0,1-.13-1.48,10.11,10.11,0,0,0,1.39-2.86c.71-.79,1-1.88,1.83-2.59.19-.12.46-.19.55-.36A15,15,0,0,0,28,490a2,2,0,0,1,.19-2.72c1.2-2.62,1.27-5.43,1.42-8.22.14-2.33.14-4.67.32-7a10,10,0,0,1,3.24-6.77c1.19-1.1,2.3-2.29,3.44-3.45a24.87,24.87,0,0,0,9.56-9.45A3,3,0,0,0,46.41,449.21Z" transform="translate(-5 -432.63)"/><path class="cls-18" d="M90.2,449.43c4.1-.89,8.2-1.8,12.46-1.6,1.78.08,2.07.5,1.42,2.8-4.88.13-9,2.26-12.67,5.19-1.46,1.14-2.83,2.4-4.28,3.55a.7.7,0,0,1-1.15-.2c-.11-.19-.28-.42-.25-.61a17.18,17.18,0,0,1,.6-3.39A17.68,17.68,0,0,1,90.2,449.43Z" transform="translate(-5 -432.63)"/><path class="cls-19" d="M56.32,473.23c3-2.39,4.34-2.36,7.61.11.47.36.56.67.11,1.1-.15.14-.31.34-.49.36-.88.07-1.77.09-2.65.12C59.18,474.87,56.74,476.77,56.32,473.23Z" transform="translate(-5 -432.63)"/><path class="cls-20" d="M56.32,473.23a2.25,2.25,0,0,0,2,1.32c.86.06,1.7.24,2.55.37-1.56.39-3.12.82-4.71,1.12a1.27,1.27,0,0,1-1-.63,1.63,1.63,0,0,1,.18-1.28A3.8,3.8,0,0,1,56.32,473.23Z" transform="translate(-5 -432.63)"/><path class="cls-21" d="M86.13,511.3c-.31-.8-.66-1.56-1.7-1.59a2.22,2.22,0,0,1,1.65-1.77.7.7,0,0,1,1,.5A2.6,2.6,0,0,1,86.13,511.3Z" transform="translate(-5 -432.63)"/><path class="cls-22" d="M356.57,493.52c3,.22,6.08.32,9.09.68,11.33,1.36,19.13,8.58,21.74,19.84a37.45,37.45,0,0,1-.15,18.07c-2.64,10.35-9.32,16.5-19.71,18.53a69.31,69.31,0,0,1-9.78.9c-2.8.13-5.61,0-8.42,0a2.29,2.29,0,0,1-2.12-2.33c0-.93-.05-1.87-.05-2.8q0-23.89,0-47.77a19.26,19.26,0,0,1,.21-3.49,1.56,1.56,0,0,1,1.46-1.28c2.57,0,5.14,0,7.71,0Z" transform="translate(-5 -432.63)"/><path class="cls-23" d="M704.51,535.65l-10.5-.3a1.32,1.32,0,0,1-1-1.5c.8-2.44,1.6-4.88,2.44-7.3q4.38-12.56,8.81-25.1c.06-.16.29-.38.41-.36a.94.94,0,0,1,.6.34,7.59,7.59,0,0,1,1.11,1.75q5.05,14.56,10,29.14c.08.22.1.46.16.68.39,1.35-.26,2.46-1.5,2.49-2.58,0-5.15,0-7.72.07h-2.81Z" transform="translate(-5 -432.63)"/><path class="cls-24" d="M28.18,487.3,28,490a2.65,2.65,0,0,1-.79-2.86C27.53,487.2,27.85,487.24,28.18,487.3Z" transform="translate(-5 -432.63)"/><path class="cls-25" d="M25.45,497.17c.06,1.17,0,2.3-1.28,2.86-.47.66-.92.65-1.35,0a9.51,9.51,0,0,1-.11-1.31l1.51-1.48A3.18,3.18,0,0,0,25.45,497.17Z" transform="translate(-5 -432.63)"/><path class="cls-26" d="M22.71,502.83a1.19,1.19,0,0,1-.35,1.27l-1.26-1.37.15.09A.83.83,0,0,1,22.71,502.83Z" transform="translate(-5 -432.63)"/><path class="cls-27" d="M22.71,502.83H21.25l-.06-1.41L22.82,500a12.18,12.18,0,0,0,1.35,0C24.13,501.19,24,502.3,22.71,502.83Z" transform="translate(-5 -432.63)"/></svg>